<?xml version="1.0" encoding="UTF-8" standalone="no"?>
<svg
   xml:space="preserve"
   sodipodi:docname="cover.svg"
   version="1.1"
   height="297mm"
   width="210mm"
   id="body_1"
   inkscape:version="1.2.2 (b0a8486541, 2022-12-01)"
   xmlns:inkscape="http://www.inkscape.org/namespaces/inkscape"
   xmlns:sodipodi="http://sodipodi.sourceforge.net/DTD/sodipodi-0.dtd"
   xmlns:xlink="http://www.w3.org/1999/xlink"
   xmlns="http://www.w3.org/2000/svg"
   xmlns:svg="http://www.w3.org/2000/svg"><defs
     id="defs244"><linearGradient
       inkscape:collect="always"
       id="linearGradient31813"><stop
         style="stop-color:#168253;stop-opacity:1;"
         offset="0"
         id="stop31809" /><stop
         style="stop-color:#ff4000;stop-opacity:1;"
         offset="1"
         id="stop31811" /></linearGradient><rect
       x="146.91991"
       y="104.39046"
       width="369.23294"
       height="242.93336"
       id="rect2848" /><linearGradient
       inkscape:collect="always"
       id="linearGradient1342"><stop
         style="stop-color:#168253;stop-opacity:1;"
         offset="0"
         id="stop1338" /><stop
         style="stop-color:#ff4000;stop-opacity:1;"
         offset="1"
         id="stop1340" /></linearGradient><linearGradient
       inkscape:collect="always"
       xlink:href="#linearGradient1342"
       id="linearGradient1344"
       x1="367.76105"
       y1="259.59796"
       x2="383.29953"
       y2="321.12567"
       gradientUnits="userSpaceOnUse" /><linearGradient
       inkscape:collect="always"
       xlink:href="#linearGradient1342"
       id="linearGradient17580"
       x1="397.46933"
       y1="491.4715"
       x2="395.38654"
       y2="434.4166"
       gradientUnits="userSpaceOnUse" /><linearGradient
       inkscape:collect="always"
       xlink:href="#linearGradient31813"
       id="linearGradient3143"
       x1="422.57404"
       y1="757.39087"
       x2="422.57404"
       y2="804.05298"
       gradientUnits="userSpaceOnUse"
       gradientTransform="translate(-70.392122,12.758184)" /><linearGradient
       inkscape:collect="always"
       xlink:href="#linearGradient1342"
       id="linearGradient31789"
       gradientUnits="userSpaceOnUse"
       x1="403.20224"
       y1="261.53113"
       x2="280.84222"
       y2="247.66571" /><filter
       style="color-interpolation-filters:sRGB;"
       inkscape:label="Drop Shadow"
       id="filter31807"
       x="-0.022060897"
       y="-0.03540796"
       width="1.056807"
       height="1.0996651"><feFlood
         flood-opacity="0.498039"
         flood-color="rgb(0,0,0)"
         result="flood"
         id="feFlood31797" /><feComposite
         in="flood"
         in2="SourceGraphic"
         operator="in"
         result="composite1"
         id="feComposite31799" /><feGaussianBlur
         in="composite1"
         stdDeviation="3"
         result="blur"
         id="feGaussianBlur31801" /><feOffset
         dx="5.79937"
         dy="6"
         result="offset"
         id="feOffset31803" /><feComposite
         in="SourceGraphic"
         in2="offset"
         operator="over"
         result="composite2"
         id="feComposite31805" /></filter><filter
       inkscape:menu="Shadows and Glows"
       inkscape:menu-tooltip="Cut out, add inner shadow and colorize some parts of an image"
       style="color-interpolation-filters:sRGB"
       inkscape:label="Emergence"
       id="filter31867"
       x="-0.012012289"
       y="-0.10221083"
       width="1.0290297"
       height="1.2470095"><feColorMatrix
         values="0 0 0 0 0 0 0 0 0 0 0 0 0 0 0 0.21 0.72 0.07 0 0 "
         result="result1"
         id="feColorMatrix31839" /><feColorMatrix
         values="1 0 0 0 0 0 1 0 0 0 0 0 1 0 0 0 0 0 2 0 "
         result="result9"
         id="feColorMatrix31841" /><feComposite
         in2="result9"
         in="SourceGraphic"
         operator="in"
         result="result4"
         id="feComposite31843" /><feFlood
         result="result2"
         flood-color="rgb(0,0,0)"
         id="feFlood31845" /><feComposite
         in2="result9"
         operator="in"
         result="result10"
         id="feComposite31847" /><feComposite
         in2="result4"
         operator="atop"
         id="feComposite31849" /><feGaussianBlur
         stdDeviation="3"
         result="result8"
         id="feGaussianBlur31851" /><feOffset
         dx="3"
         dy="3"
         result="result3"
         in="result8"
         id="feOffset31853" /><feFlood
         flood-opacity="1"
         flood-color="rgb(219,173,62)"
         result="result5"
         id="feFlood31855" /><feMerge
         result="result6"
         id="feMerge31863"><feMergeNode
           in="result5"
           id="feMergeNode31857" /><feMergeNode
           in="result3"
           id="feMergeNode31859" /><feMergeNode
           in="result4"
           id="feMergeNode31861" /></feMerge><feComposite
         in2="SourceGraphic"
         operator="in"
         result="result7"
         id="feComposite31865" /></filter></defs><sodipodi:namedview
     id="namedview242"
     pagecolor="#ffffff"
     bordercolor="#000000"
     borderopacity="0.25"
     inkscape:showpageshadow="2"
     inkscape:pageopacity="0.0"
     inkscape:pagecheckerboard="0"
     inkscape:deskcolor="#d1d1d1"
     showgrid="false"
     inkscape:document-units="mm"
     inkscape:zoom="0.38796647"
     inkscape:cx="482.00042"
     inkscape:cy="420.1394"
     inkscape:window-width="1920"
     inkscape:window-height="1007"
     inkscape:window-x="0"
     inkscape:window-y="0"
     inkscape:window-maximized="1"
     inkscape:current-layer="body_1"><sodipodi:guide
       position="0,1009.1338"
       orientation="0,1"
       id="guide255"
       inkscape:locked="false"
       inkscape:label=""
       inkscape:color="rgb(0,134,229)" /><sodipodi:guide
       position="680.31496,1122.5197"
       orientation="-1,0"
       id="guide257"
       inkscape:locked="false"
       inkscape:label=""
       inkscape:color="rgb(0,134,229)" /><sodipodi:guide
       position="793.70079,113.38583"
       orientation="0,1"
       id="guide259"
       inkscape:locked="false"
       inkscape:label=""
       inkscape:color="rgb(0,134,229)" /><sodipodi:guide
       position="113.38583,0"
       orientation="-1,0"
       id="guide261"
       inkscape:locked="false"
       inkscape:label=""
       inkscape:color="rgb(0,134,229)" /></sodipodi:namedview><text
     xml:space="preserve"
     style="font-style:normal;font-variant:normal;font-weight:900;font-stretch:normal;font-size:74.6667px;font-family:'Noto Sans';-inkscape-font-specification:'Noto Sans, Heavy';font-variant-ligatures:normal;font-variant-caps:normal;font-variant-numeric:normal;font-variant-east-asian:normal;white-space:pre;display:inline;fill:url(#linearGradient1344);fill-opacity:1"
     id="text317"
     transform="translate(-9.5686377,-23.23812)"
     inkscape:label="text terra"><textPath
       xlink:href="#path2908"
       id="textPath2921"
       style="fill:url(#linearGradient31789)"
       inkscape:label="textPath2921"><tspan
         id="tspan315"
         style="font-style:normal;font-variant:normal;font-weight:900;font-stretch:normal;font-size:74.6667px;font-family:'Noto Sans';-inkscape-font-specification:'Noto Sans, Heavy';font-variant-ligatures:normal;font-variant-caps:normal;font-variant-numeric:normal;font-variant-east-asian:normal;fill:url(#linearGradient1344);fill-opacity:1">Terra</tspan></textPath></text><path
     style="display:none;fill:none;fill-opacity:1;stroke:#00ffff;stroke-width:2.72978;stroke-dasharray:none;stroke-opacity:1"
     d="m 285.36198,475.74062 c 61.07447,21.2307 185.50278,11.05629 241.96701,-16.28433"
     id="path2938"
     sodipodi:nodetypes="cc"
     inkscape:label="path frutis" /><text
     xml:space="preserve"
     style="font-style:normal;font-variant:normal;font-weight:900;font-stretch:normal;font-size:74.6667px;font-family:'Noto Sans';-inkscape-font-specification:'Noto Sans, Heavy';font-variant-ligatures:normal;font-variant-caps:normal;font-variant-numeric:normal;font-variant-east-asian:normal;white-space:pre;display:inline;fill:url(#linearGradient17580);fill-opacity:1"
     id="text371"
     inkscape:label="text frutis"><textPath
       xlink:href="#path2938"
       id="textPath3027"
       style="fill:url(#linearGradient17580)"><tspan
         id="tspan369"
         style="font-style:normal;font-variant:normal;font-weight:900;font-stretch:normal;font-size:74.6667px;font-family:'Noto Sans';-inkscape-font-specification:'Noto Sans, Heavy';font-variant-ligatures:normal;font-variant-caps:normal;font-variant-numeric:normal;font-variant-east-asian:normal;fill:url(#linearGradient17580);fill-opacity:1">Frutis</tspan></textPath></text><text
     xml:space="preserve"
     style="font-style:normal;font-variant:normal;font-weight:900;font-stretch:normal;font-size:69.3333px;font-family:'Noto Sans';-inkscape-font-specification:'Noto Sans, Heavy';font-variant-ligatures:normal;font-variant-caps:normal;font-variant-numeric:normal;font-variant-east-asian:normal;white-space:pre;inline-size:621.257;fill:url(#linearGradient3143);fill-opacity:1;stroke:none;stroke-width:2.51339;stroke-dasharray:none;stroke-opacity:1;filter:url(#filter31867)"
     x="91.818466"
     y="800.12036"
     id="text3085"
     inkscape:label="Title"><tspan
       x="91.818466"
       y="800.12036"
       id="tspan31958">Newcomer guide</tspan></text><g
     inkscape:groupmode="layer"
     id="layer2"
     inkscape:label="ananas"
     style="filter:url(#filter31807);opacity:0.44240401"><g
       inkscape:label="Layer 1"
       id="layer1"
       transform="matrix(3.7795276,0,0,3.7795276,170.79458,-616.40724)"><path
         id="path11021"
         style="fill:#008000;fill-opacity:1;stroke:#7da62f;stroke-width:0.0846667;stroke-opacity:1"
         d="m 181.45675,170.35881 c -0.41394,3.25257 -1.11083,6.46856 -2.48342,9.46358 -0.85456,2.65463 -1.93334,5.18642 -3.61509,7.43697 -1.78232,2.71287 -3.77463,5.30987 -6.14454,7.53862 -0.52546,-0.71176 1.94451,-2.74219 2.53188,-3.93112 1.4366,-1.976 2.67322,-4.08672 3.88707,-6.20394 0.73515,-3.07031 0.74277,-6.43099 -0.91421,-9.21289 -0.28403,-2.31152 -3.9417,-4.24931 -3.54301,-0.71733 -0.0488,3.38835 0.0391,6.87442 -1.36444,10.04586 -1.17735,2.29748 -1.80995,4.97183 -3.53831,6.92503 -0.67094,0.88607 -2.91666,1.98625 -1.48609,0.11213 1.35902,-2.4205 2.29808,-5.03776 3.124,-7.66062 0.21758,-1.6176 0.24772,-5.47403 -1.86643,-5.31524 -1.49999,2.28329 -0.78741,5.23152 -1.55163,7.76866 -0.0348,3.53505 -3.75539,3.79448 -5.74903,5.68284 -0.84683,2.91845 0.0704,6.06841 0.008,9.08008 0.18239,2.45678 -2.479,6.37534 -0.17325,7.85304 2.10408,-1.42479 2.73834,-4.30294 3.40455,-6.60962 0.20623,-1.08254 -0.16725,-4.27269 0.22925,-3.95576 0.878,2.96242 2.35483,5.93346 1.67207,9.11211 -0.4431,2.91571 -0.82599,5.88186 -2.33882,8.47229 -0.95124,1.56849 0.58469,3.34817 1.44666,1.11536 1.37167,-2.28942 2.54578,-4.71527 3.03772,-7.35199 0.87749,-3.78882 1.4241,-7.67431 1.63022,-11.5564 1.39138,0.99799 1.39272,4.16895 2.92672,5.64117 1.77678,2.32338 3.81038,4.5308 4.69424,7.39151 1.39985,2.66775 1.63516,5.64867 2.02461,8.57817 1.02995,1.55534 -0.53324,4.79139 1.31282,5.39616 1.22024,-2.4608 -0.1057,-5.64145 -0.29451,-8.34764 -0.67376,-3.10625 -1.70515,-6.11925 -2.53025,-9.18275 -0.13096,-1.34028 -2.90278,-4.47049 -0.0982,-3.42197 2.19422,0.8363 4.50074,1.05285 6.81652,1.26006 3.78438,0.40474 7.57434,0.80468 11.35797,1.16946 3.42491,-0.39319 -0.58268,-3.18861 -2.1337,-3.45458 -3.34507,-1.37742 -6.84582,-2.30591 -10.41232,-2.89477 -1.17889,-0.83546 -4.83646,0.24613 -4.41458,-1.01668 3.24885,-1.78876 6.06926,-4.24545 9.02712,-6.46346 3.01701,-2.47451 5.12828,-5.84161 7.77014,-8.68267 1.09561,-0.68948 1.19961,-3.26137 -0.36393,-1.56487 -1.89287,2.50281 -3.8879,5.00787 -6.65514,6.59157 -2.37534,1.98712 -5.09403,3.46579 -7.93528,4.6683 -1.06894,0.22047 -3.44982,2.88301 -3.5783,2.15901 2.95828,-3.6664 7.20042,-6.46759 8.78225,-11.09364 1.4176,-2.8225 2.17108,-6.05247 1.19983,-9.15331 -0.84484,-1.89655 -1.27734,-5.26701 -3.69923,-5.67073 z"
         sodipodi:nodetypes="csscssscsssssssssscscssssscscssssscsssssscssssscscscsssssscsssssssssssssscscssssccsssssssscsssscsscscsscssssssssscsssssccssssccsscsssssssssccssssssssssssssscsssssssssssssssssscssssscc"
         inkscape:highlight-color="#cf728d"
         class="UnoptimicedTransforms"
         transform="rotate(-5.4282165,742.59335,944.75361)" /><path
         id="path7099-3"
         style="fill:#ffea00;fill-opacity:1;stroke:#510610;stroke-width:0.611268;stroke-opacity:1"
         d="m 89.981203,253.51775 c 1.073982,13.47516 -1.397641,16.79594 -12.862062,18.68935 -4.821458,0.79631 -11.593426,1.99857 -19.077681,2.31445 -19.169629,0.80905 -30.513405,-2.27817 -30.446383,-11.73115 0.06265,-8.83651 10.288713,-14.88244 27.634775,-18.7874 18.18924,-4.09476 33.569893,-5.30891 34.751351,9.51475 z"
         sodipodi:nodetypes="ssssss" /><g
         id="g15328"><path
           style="fill:none;stroke:#510610;stroke-width:0.79375;stroke-linecap:round;stroke-linejoin:miter;stroke-dasharray:none;stroke-opacity:1"
           d="m 63.32269,242.50089 c 10.758115,4.92482 19.687062,11.85751 26.432175,19.34943"
           id="path14698"
           sodipodi:nodetypes="cc" /><path
           style="fill:none;stroke:#510610;stroke-width:0.79375;stroke-linecap:round;stroke-linejoin:miter;stroke-dasharray:none;stroke-opacity:1"
           d="m 50.967956,245.2443 c 6.700515,2.25017 27.833957,12.43455 34.865554,23.93725"
           id="path15225"
           sodipodi:nodetypes="cc" /><path
           style="fill:none;stroke:#510610;stroke-width:0.79375;stroke-linecap:round;stroke-linejoin:miter;stroke-dasharray:none;stroke-opacity:1"
           d="m 41.16974,248.74459 c 6.700515,2.25017 27.38124,12.02445 34.412837,23.52715"
           id="path15227"
           sodipodi:nodetypes="cc" /><path
           style="fill:none;stroke:#510610;stroke-width:0.79375;stroke-linecap:round;stroke-linejoin:miter;stroke-dasharray:none;stroke-opacity:1"
           d="m 33.582771,252.75119 c 6.700515,2.25017 21.712325,9.7441 28.743922,21.2468"
           id="path15231"
           sodipodi:nodetypes="cc" /><path
           style="fill:none;stroke:#510610;stroke-width:0.79375;stroke-linecap:round;stroke-linejoin:miter;stroke-dasharray:none;stroke-opacity:1"
           d="m 28.553207,258.80371 c 6.700515,2.25017 14.764707,5.14077 21.881551,15.62051"
           id="path15233"
           sodipodi:nodetypes="cc" /><path
           style="fill:none;stroke:#510610;stroke-width:0.79375;stroke-linecap:round;stroke-linejoin:miter;stroke-dasharray:none;stroke-opacity:1"
           d="m 49.141462,245.75667 c -4.120025,3.67209 -12.956867,13.20845 -13.626323,26.55001"
           id="path15235"
           sodipodi:nodetypes="cc" /><path
           style="fill:none;stroke:#510610;stroke-width:0.79375;stroke-linecap:round;stroke-linejoin:miter;stroke-dasharray:none;stroke-opacity:1"
           d="m 62.856749,242.65631 c -4.120025,3.67209 -17.422871,18.18424 -18.092327,31.5258"
           id="path15239"
           sodipodi:nodetypes="cc" /><path
           style="fill:none;stroke:#510610;stroke-width:0.79375;stroke-linecap:round;stroke-linejoin:miter;stroke-dasharray:none;stroke-opacity:1"
           d="m 74.204477,241.35825 c -4.120025,3.67209 -18.583601,19.73804 -19.253057,33.0796"
           id="path15241"
           sodipodi:nodetypes="cc" /><path
           style="fill:none;stroke:#510610;stroke-width:0.79375;stroke-linecap:round;stroke-linejoin:miter;stroke-dasharray:none;stroke-opacity:1"
           d="m 83.255269,243.04856 c -4.120025,3.67209 -17.021161,17.36576 -17.690617,30.70732"
           id="path15243"
           sodipodi:nodetypes="cc" /><path
           style="fill:none;stroke:#510610;stroke-width:0.79375;stroke-linecap:round;stroke-linejoin:miter;stroke-dasharray:none;stroke-opacity:1"
           d="m 88.455327,249.10109 c -4.120025,3.67209 -12.247338,9.94928 -12.916794,23.29084"
           id="path15245"
           sodipodi:nodetypes="cc" /></g></g></g><g
     inkscape:groupmode="layer"
     id="layer3"
     inkscape:label="temp"
     style="display:none"><path
       id="path31791"
       style="fill:none;fill-opacity:1;stroke:#f25552;stroke-width:0.611268;stroke-opacity:1"
       sodipodi:type="inkscape:offset"
       inkscape:radius="17.210743"
       inkscape:original="M 73.917969 241.30469 C 68.487595 241.33621 62.061199 242.46837 55.240234 244.00391 C 37.894172 247.90887 27.668119 253.95451 27.605469 262.79102 C 27.538447 272.244 38.883105 275.33053 58.052734 274.52148 C 65.536989 274.2056 72.307448 273.00334 77.128906 272.20703 C 88.593327 270.31362 91.06617 266.99274 89.992188 253.51758 C 89.253776 244.25279 82.968591 241.25214 73.917969 241.30469 z "
       d="m 73.818359,224.09375 c -7.743582,0.045 -15.045149,1.473 -22.357421,3.11914 -9.822653,2.21128 -18.344019,4.94874 -25.958985,9.94336 -7.614966,4.99462 -15.029227,14.4847 -15.107422,25.51367 -0.04121,5.8121 2.146063,12.47631 6.083985,17.14844 3.937921,4.67213 8.809425,7.28605 13.384765,8.9082 9.15068,3.2443 18.267046,3.43967 28.916016,2.99024 8.88557,-0.37503 16.524951,-1.76472 21.154297,-2.5293 7.131984,-1.17789 16.397849,-3.45768 22.449216,-12.14258 6.05137,-8.68489 5.39463,-17.0025 4.76563,-24.89453 -0.66477,-8.34081 -5.2574,-17.60672 -12.394534,-22.46289 -7.137138,-4.85617 -14.48518,-5.6312 -20.935547,-5.59375 z"
       transform="matrix(3.7795276,0,0,3.7795276,170.79458,-616.40724)" /><path
       id="path31786"
       style="fill:none;fill-opacity:1;stroke:#f25552;stroke-width:0.611268;stroke-opacity:1"
       sodipodi:type="inkscape:offset"
       inkscape:radius="5.9663587"
       inkscape:original="M 73.917969 241.30469 C 68.487595 241.33621 62.061199 242.46837 55.240234 244.00391 C 37.894172 247.90887 27.668119 253.95451 27.605469 262.79102 C 27.538447 272.244 38.883105 275.33053 58.052734 274.52148 C 65.536989 274.2056 72.307448 273.00334 77.128906 272.20703 C 88.593327 270.31362 91.06617 266.99274 89.992188 253.51758 C 89.253776 244.25279 82.968591 241.25214 73.917969 241.30469 z "
       d="m 73.882812,235.33789 c -6.232281,0.0362 -12.961841,1.27182 -19.953124,2.8457 -9.071565,2.0422 -16.52795,4.61553 -22.259766,8.375 -5.731816,3.75948 -9.983677,9.4795 -10.03125,16.18946 -0.02523,3.55884 1.187966,7.15331 3.4375,9.82226 2.249534,2.66895 5.252304,4.38927 8.544922,5.55664 6.585235,2.33475 14.729874,2.77557 24.683594,2.35547 7.970041,-0.33638 15.042015,-1.60336 19.796874,-2.38867 6.217463,-1.02685 11.706391,-2.6683 15.056641,-7.47656 3.350251,-4.80827 3.350138,-10.43643 2.78125,-17.57422 -0.471667,-5.91797 -3.211501,-11.13269 -7.511719,-14.05859 -4.300217,-2.92591 -9.352262,-3.67664 -14.544922,-3.64649 z"
       transform="matrix(3.7795276,0,0,3.7795276,170.79458,-616.40724)" /></g><path
     style="fill:none;fill-opacity:1;stroke:none;stroke-width:0.623622;stroke-dasharray:none;stroke-opacity:1"
     d="M 292.48113,341.68178 C 326.77965,315.17126 415.23399,290.82167 467.4963,296.62777"
     id="path2908"
     sodipodi:nodetypes="cc"
     inkscape:label="path terra" /></svg>
